<svg xmlns="http://www.w3.org/2000/svg" class="bi bi-bootstrap" fill="currentColor" viewBox="0 0 20 20" width="1em" height="1em">
  <path clip-rule="evenodd" fill-rule="evenodd" d="M 14 3 H 6 a 3 3 0 0 0 -3 3 v 8 a 3 3 0 0 0 3 3 h 8 a 3 3 0 0 0 3 -3 V 6 a 3 3 0 0 0 -3 -3 Z M 6 2 a 4 4 0 0 0 -4 4 v 8 a 4 4 0 0 0 4 4 h 8 a 4 4 0 0 0 4 -4 V 6 a 4 4 0 0 0 -4 -4 H 6 Z"/>
  <path clip-rule="evenodd" fill-rule="evenodd" d="M 10.537 14 H 7.062 V 5.545 h 3.398 c 1.588 0 2.543 0.809 2.543 2.11 c 0 0.884 -0.65 1.675 -1.482 1.816 v 0.1 c 1.143 0.117 1.904 0.931 1.904 2.033 c 0 1.488 -1.084 2.396 -2.888 2.396 Z M 8.375 6.658 v 2.467 h 1.558 c 1.16 0 1.764 -0.428 1.764 -1.23 c 0 -0.78 -0.568 -1.237 -1.541 -1.237 H 8.375 Z m 1.898 6.229 H 8.375 v -2.725 h 1.822 c 1.236 0 1.887 0.463 1.887 1.348 c 0 0.896 -0.627 1.377 -1.811 1.377 Z"/>
</svg>